<svg preserveAspectRatio="none" width="100%" height="100%" overflow="visible" style="display: block;" viewBox="0 0 85.5008 21.2044" fill="none" xmlns="http://www.w3.org/2000/svg">
<g id="Vector">
<path d="M5.9072 5.3626H4.56107V1.06945C4.56107 0.478725 4.08234 0 3.48942 0C2.89651 0 2.41778 0.478725 2.41778 1.06945V5.3626H1.07164C0.480921 5.3626 0 5.84133 0 6.43205C0 7.02277 0.478725 7.50149 1.07164 7.50149H2.41778V14.9151C2.41778 15.5059 2.89651 15.9868 3.48942 15.9868C4.08234 15.9868 4.56107 15.5081 4.56107 14.9151V7.50149H5.9072C6.49792 7.50149 6.97885 7.02277 6.97885 6.43205C6.97885 5.84133 6.50012 5.3626 5.9072 5.3626Z" fill="var(--fill-0, black)"/>
<path d="M19.7573 5.26158C19.1666 5.26158 18.6857 5.74031 18.6857 6.33103V14.9173C18.6857 15.5081 19.1644 15.989 19.7573 15.989C20.3502 15.989 20.8289 15.5103 20.8289 14.9173V6.33103C20.8289 5.74031 20.3502 5.26158 19.7573 5.26158Z" fill="var(--fill-0, black)"/>
<path d="M19.7573 1.22097C19.1666 1.22097 18.6857 1.69969 18.6857 2.29261C18.6857 2.88553 19.1644 3.36425 19.7573 3.36425C20.3502 3.36425 20.8289 2.88553 20.8289 2.29261C20.8289 1.69969 20.3502 1.22097 19.7573 1.22097Z" fill="var(--fill-0, black)"/>
<path d="M66.5779 5.26158C65.9872 5.26158 65.5063 5.74031 65.5063 6.33103V14.9173C65.5063 15.5081 65.985 15.989 66.5779 15.989C67.1709 15.989 67.6496 15.5103 67.6496 14.9173V6.33103C67.6496 5.74031 67.1709 5.26158 66.5779 5.26158Z" fill="var(--fill-0, black)"/>
<path d="M66.5779 3.36206C67.1687 3.36206 67.6496 2.88333 67.6496 2.29041C67.6496 1.6975 67.1709 1.21877 66.5779 1.21877C65.985 1.21877 65.5063 1.6975 65.5063 2.29041C65.5063 2.88333 65.985 3.36206 66.5779 3.36206Z" fill="var(--fill-0, black)"/>
<path d="M12.8948 5.28794C11.9967 5.28794 11.1622 5.55145 10.4551 5.99944V1.07164C10.4551 0.480921 9.97637 0.00219562 9.38345 0.00219562C8.79054 0.00219562 8.31181 0.480921 8.31181 1.07164V14.9195C8.31181 15.5103 8.79054 15.9912 9.38345 15.9912C9.97637 15.9912 10.4551 15.5125 10.4551 14.9195V9.86876C10.4551 8.52262 11.5487 7.42902 12.8948 7.42902C14.241 7.42902 15.3346 8.52482 15.3346 9.86876V14.9195C15.3346 15.5103 15.8133 15.9912 16.4062 15.9912C16.9991 15.9912 17.4779 15.5125 17.4779 14.9195V9.86876C17.4779 7.34338 15.4224 5.28794 12.897 5.28794H12.8948Z" fill="var(--fill-0, black)"/>
<path d="M27.1139 5.26158C24.213 5.26158 21.8545 7.62227 21.8545 10.521V14.9173C21.8545 15.5081 22.3332 15.989 22.9261 15.989C23.519 15.989 23.9977 15.5103 23.9977 14.9173V10.521C23.9977 8.80152 25.3966 7.40267 27.116 7.40267C28.8355 7.40267 30.2343 8.80152 30.2343 10.521V14.9173C30.2343 15.5081 30.7131 15.989 31.306 15.989C31.8989 15.989 32.3776 15.5103 32.3776 14.9173V10.521C32.3776 7.62007 30.0169 5.26158 27.1182 5.26158H27.1139Z" fill="var(--fill-0, black)"/>
<path d="M73.9543 5.26158C71.0534 5.26158 68.6949 7.62227 68.6949 10.521V14.9173C68.6949 15.5081 69.1736 15.989 69.7665 15.989C70.3594 15.989 70.8382 15.5103 70.8382 14.9173V10.521C70.8382 8.80152 72.237 7.40267 73.9564 7.40267C74.5472 7.40267 75.0281 6.92395 75.0281 6.33323C75.0281 5.74251 74.5494 5.26378 73.9564 5.26378L73.9543 5.26158Z" fill="var(--fill-0, black)"/>
<path d="M38.836 5.3626C35.9966 5.3626 33.6864 7.67278 33.6864 10.5122C33.6864 13.3516 35.9966 15.6618 38.836 15.6618C39.9582 15.6618 40.9969 15.2994 41.8445 14.6868V16.0527C41.8445 17.7106 40.494 19.0612 38.836 19.0612C37.5799 19.0612 36.4446 18.2684 36.012 17.0914C35.8078 16.5358 35.1929 16.2525 34.6373 16.4567C34.0817 16.661 33.7984 17.2758 34.0027 17.8314C34.7449 19.8495 36.6862 21.2044 38.836 21.2044C41.6754 21.2044 43.9856 18.8943 43.9856 16.0549V10.5144C43.9856 7.67497 41.6754 5.3648 38.836 5.3648V5.3626ZM38.836 13.5207C37.1781 13.5207 35.8275 12.1702 35.8275 10.5122C35.8275 8.85422 37.1781 7.50369 38.836 7.50369C40.494 7.50369 41.8445 8.85422 41.8445 10.5122C41.8445 12.1702 40.494 13.5207 38.836 13.5207Z" fill="var(--fill-0, black)"/>
<path d="M49.0627 7.41146C49.7852 7.41146 50.455 7.80234 50.8107 8.43259C51.1028 8.94645 51.755 9.12872 52.2689 8.83665C52.7827 8.54459 52.965 7.89238 52.6729 7.37852C51.9373 6.07849 50.5538 5.27256 49.0605 5.27256C48.8827 5.27256 47.2928 5.30331 46.2519 6.35958C45.6941 6.92834 45.4657 7.68815 45.4745 8.55337C45.4525 9.49984 46.0213 11.3137 48.5906 11.5311C50.2837 11.6739 50.6614 12.1658 50.657 12.7741C50.6548 13.233 50.4682 13.7403 49.3526 13.7403C48.1009 13.7403 47.2511 12.8421 47.2247 12.8092C46.869 12.3349 46.1992 12.2404 45.7248 12.594C45.2527 12.9497 45.1561 13.6195 45.5118 14.0938C45.5689 14.1707 46.847 16.0065 49.3899 15.9319C51.9065 15.9319 52.7147 14.1861 52.7147 12.7719C52.7147 11.3576 52.0339 9.75018 48.7992 9.54815C47.7298 9.48227 47.5673 8.81469 47.5541 8.5885V8.54019C47.5541 7.40706 48.8431 7.41365 49.0605 7.41146H49.0627Z" fill="black"/>
<path d="M59.2894 5.3626C56.45 5.3626 54.1399 7.67278 54.1399 10.5122V20.1328C54.1399 20.7235 54.6186 21.2044 55.2115 21.2044C55.8044 21.2044 56.2831 20.7257 56.2831 20.1328V14.689C57.1308 15.3016 58.1695 15.664 59.2916 15.664C62.1311 15.664 64.4412 13.3538 64.4412 10.5144C64.4412 7.67497 62.1311 5.3648 59.2916 5.3648L59.2894 5.3626ZM59.2894 13.5207C57.6315 13.5207 56.2809 12.1702 56.2809 10.5122C56.2809 8.85422 57.6315 7.50369 59.2894 7.50369C60.9474 7.50369 62.298 8.85422 62.298 10.5122C62.298 12.1702 60.9474 13.5207 59.2894 13.5207Z" fill="var(--fill-0, black)"/>
<path d="M80.2501 5.3626C77.3558 5.3626 74.9995 7.7167 74.9995 10.6132C74.9995 13.5097 77.3558 15.8638 80.2501 15.8638C81.5238 15.8638 82.7514 15.4026 83.7088 14.5638C84.1524 14.1751 84.1985 13.4987 83.8076 13.0529C83.419 12.6072 82.7426 12.5632 82.2968 12.9541C81.7302 13.4504 81.0034 13.7227 80.2501 13.7227C78.9128 13.7227 77.7687 12.8729 77.3317 11.6848H84.4291C85.0198 11.6848 85.5008 11.2061 85.5008 10.6154C85.5008 7.72109 83.1445 5.3648 80.2501 5.3648V5.3626ZM77.3317 9.54156C77.7687 8.35353 78.9128 7.50369 80.2501 7.50369C81.5875 7.50369 82.7316 8.35353 83.1686 9.54156H77.3317Z" fill="var(--fill-0, black)"/>
</g>
</svg>
